PathFileType	4	(X/Y/Z)	C:\Users\chris\Documents\GitHub\baseballds\vids\pitch5_Sports2D\pitch5_Sports2D_px_person06.trc
DataRate	CameraRate	NumFrames	NumMarkers	Units	OrigDataRate	OrigDataStartFrame	OrigNumFrames
30	30	8	22	m	30	74	149
Frame#	Time	Hip			RHip			RKnee			RAnkle			RBigToe			RSmallToe			RHeel			LHip			LKnee			LAnkle			LBigToe			LSmallToe			LHeel			Neck			Head			Nose			RShoulder			RElbow			RWrist			LShoulder			LElbow			LWrist		
		X1	Y1	Z1	X2	Y2	Z2	X3	Y3	Z3	X4	Y4	Z4	X5	Y5	Z5	X6	Y6	Z6	X7	Y7	Z7	X8	Y8	Z8	X9	Y9	Z9	X10	Y10	Z10	X11	Y11	Z11	X12	Y12	Z12	X13	Y13	Z13	X14	Y14	Z14	X15	Y15	Z15	X16	Y16	Z16	X17	Y17	Z17	X18	Y18	Z18	X19	Y19	Z19	X20	Y20	Z20	X21	Y21	Z21	X22	Y22	Z22
74	2.466666666666667	1099.1536368985219	549.3981252313923	0.0	1091.9071531019035	549.1144422410264	0.0	1105.3779297600147	647.1029636876503	0.0	1088.378201498754	739.9613411240531	0.0	1125.3401372503915	759.401821475341	0.0	1115.4822629773932	765.119799186105	0.0	1075.4523941619673	757.2357553511241	0.0	1109.4564857920245	547.9605925472059	0.0	1126.2158482280731	640.0759121013615	0.0	1145.2202004457904	726.6448882596342	0.0	1191.0844570259558	747.1078020712316	0.0	1186.5559142918264	742.8115523540494	0.0	1139.4543345346417	742.6922139956033	0.0	1124.3541303295387	412.8608244123327	0.0	1134.2562479053263	349.1802660638396	0.0	1154.6383949154767	385.67157772604344	0.0	1110.6705539078253	444.41961982423015	0.0	1113.4429605672126	515.6404239344045	0.0	1175.6852701838939	524.1284385580828	0.0	1132.1598726839766	422.8680167558289	0.0	1159.0633649163829	391.5247579704294	0.0	1188.2870592109625	361.6074742226265	0.0
75	2.5	1100.048851445688	549.9373615516716	0.0	1092.751640553546	550.3948070645343	0.0	1105.3760908004522	648.3293835644289	0.0	1088.5541317778216	739.8108601371213	0.0	1125.836539213151	759.8146381436605	0.0	1115.5476876697874	764.8676433411549	0.0	1075.6487912857979	756.1020292138578	0.0	1110.1107961426596	549.1437049007575	0.0	1133.9625378246128	639.7096016965393	0.0	1159.4539241982134	725.5433777738109	0.0	1206.8678900836564	745.7919764149112	0.0	1203.136803917599	741.8495851245524	0.0	1153.726383543247	741.7823875321991	0.0	1122.5560841007261	414.34998998494865	0.0	1133.0776147356778	348.6283102123426	0.0	1153.0753200213755	386.37883838894675	0.0	1110.218894196119	446.1514808658167	0.0	1116.6018610030142	515.8864091647448	0.0	1179.7466268733476	519.5731943388215	0.0	1130.4598347932656	422.25810101488196	0.0	1160.114602770302	391.944470651635	0.0	1192.9583633214056	361.94741527984814	0.0
76	2.533333333333333	1101.0593438643434	551.3362465791558	0.0	1092.9721739294646	552.5434870694825	0.0	1105.4089789693514	649.3761805146266	0.0	1088.5573320834646	739.6245565971894	0.0	1126.3883472194047	759.6531717238959	0.0	1116.060401568957	764.116821048502	0.0	1075.9810136187907	754.8915360026579	0.0	1111.2277833145565	551.201890002813	0.0	1142.1655000769088	638.3841407759852	0.0	1170.9726741254622	723.971950310415	0.0	1217.3357854902486	744.8715484021418	0.0	1214.9020187090741	740.9997923757784	0.0	1165.4294439263463	740.6256772080712	0.0	1121.2117425704232	415.1068677297789	0.0	1132.7977384073433	347.0465766471361	0.0	1152.5279059390095	386.54493034042065	0.0	1109.3369334928323	447.0876253856921	0.0	1118.494665698176	515.2442434335571	0.0	1183.409006102558	513.8339819951174	0.0	1129.8088416238463	422.1489223447775	0.0	1161.6141949920495	394.33965189016504	0.0	1198.2411953950166	365.56568963947564	0.0
77	2.5666666666666664	1102.3086603160616	553.5386152651943	0.0	1093.295171897136	555.5581316553403	0.0	1105.5044503194893	650.9068310001774	0.0	1088.4435464499713	739.6346481672927	0.0	1126.7483047629016	758.7879166686437	0.0	1116.7686616048813	762.8634667794034	0.0	1076.483379289743	754.0147695190772	0.0	1113.163550818888	553.8571707492904	0.0	1149.5010591892037	636.6176314881238	0.0	1179.968328725203	722.7342439453272	0.0	1224.119140816323	744.5131833513406	0.0	1222.1309195443905	740.3044821600649	0.0	1174.7755807349924	739.4709033033687	0.0	1120.9434828384196	414.6094035597894	0.0	1133.0393419203556	345.6843953755508	0.0	1152.900879241178	386.03219584310966	0.0	1108.7184643419773	446.3877935938249	0.0	1118.4088863092968	513.6970843202164	0.0	1185.1855441026971	507.72691654748616	0.0	1129.7202603307499	423.18607803309635	0.0	1163.0289582255484	402.2389235486546	0.0	1202.7803336216173	374.4329708173883	0.0
78	2.6	1104.2566553727108	555.1514716572326	0.0	1094.6761333670474	557.6770210399259	0.0	1105.848656370449	652.0685629124515	0.0	1088.3999320935513	739.6320288107786	0.0	1126.8103014095157	757.9849453614081	0.0	1116.9756502849327	761.9612942015801	0.0	1076.820215090839	753.4248763074606	0.0	1115.990823373364	555.4180355335127	0.0	1155.2367511046166	634.7169750553389	0.0	1186.183075864143	721.9424940851039	0.0	1228.4062237470323	744.163453614337	0.0	1226.3141880230864	739.4461110012579	0.0	1181.0851928848901	738.104102721908	0.0	1121.5297993969853	413.49802997840095	0.0	1133.9621124960938	344.9240821157485	0.0	1154.0468387078672	385.1838921685801	0.0	1108.378791530896	443.99764235833266	0.0	1116.4976901233226	511.3298110237071	0.0	1183.4835384027963	502.75225006393964	0.0	1129.7976037623325	425.13033402529584	0.0	1163.7061462785296	416.2073649378646	0.0	1205.4254122685445	389.7323124616477	0.0
79	2.6333333333333333	1106.9597340839982	555.5505306848423	0.0	1097.2858339835516	557.7991042447453	0.0	1106.6084761149264	651.8651750189578	0.0	1088.4742428892723	739.4139134673766	0.0	1126.7790991509437	757.8507179358646	0.0	1116.5277916161801	762.0638126880328	0.0	1076.6631063455657	753.113208172034	0.0	1119.3917011696146	555.2460860863416	0.0	1159.4887749665547	633.5146417408533	0.0	1189.816814878337	721.6415291895902	0.0	1230.497715684284	743.9611300593419	0.0	1228.717584273188	738.8829985983489	0.0	1184.4006001703517	737.0172000054995	0.0	1122.3663364805034	412.61617736819915	0.0	1135.4402907450944	344.3542506257509	0.0	1155.557738271131	384.64058625134084	0.0	1108.014625074315	441.1216469979488	0.0	1114.0750033179231	508.7476433686896	0.0	1178.7840301883264	499.4181659396222	0.0	1130.5475513243584	426.9834116055998	0.0	1163.1493451080635	434.07042211361886	0.0	1204.767975851887	411.9716327697963	0.0
80	2.6666666666666665	1109.8950788023617	555.7398859488326	0.0	1100.4473908597877	557.0649412166293	0.0	1107.7444060664986	651.1586918770796	0.0	1088.5904118524973	739.2467348742287	0.0	1126.6168551012038	758.2986055424201	0.0	1116.0143430824323	762.6244800690644	0.0	1076.3125057038744	753.0806675700129	0.0	1122.7989285351791	554.8565746433052	0.0	1162.4893490683148	633.9292310847031	0.0	1191.577683358827	722.36619339812	0.0	1230.9887546957473	745.0795185941163	0.0	1229.6956838692613	739.8787413813194	0.0	1185.6580416465206	737.4893295835609	0.0	1123.111845204977	412.0421681656647	0.0	1136.9227639768858	343.7724792599073	0.0	1156.5311344478325	384.80050921161376	0.0	1107.4276150823391	438.9758597981611	0.0	1111.8877485163325	506.71450388966673	0.0	1173.2148855443572	497.0192655645421	0.0	1132.1562915284983	428.10316369546916	0.0	1160.3754700857212	453.12099530505736	0.0	1199.3599624043313	438.9924720689754	0.0
81	2.7	1112.682766730033	556.4612126050874	0.0	1103.4533861696923	556.8580716673653	0.0	1109.207413039563	651.224724373623	0.0	1088.8249081876202	739.3086072096808	0.0	1126.30399215256	758.9802093277174	0.0	1116.0868494192891	762.8167191288833	0.0	1076.3978850460567	753.1583497610712	0.0	1125.9187940736515	555.4623542784343	0.0	1164.1391576682206	635.6206590219624	0.0	1191.9358999942324	724.5316776782714	0.0	1230.7559741386565	748.3295378005282	0.0	1229.40293887975	743.1183816772343	0.0	1185.581164431003	740.0490402703967	0.0	1123.7516531254635	411.5968560755824	0.0	1138.3000659590325	343.3895787083278	0.0	1156.507320766815	385.3895141414098	0.0	1106.7068452055844	437.8731928328822	0.0	1109.5954738407686	505.56436322023296	0.0	1168.6363657813856	495.14905388631144	0.0	1133.5868878928818	428.78294639668695	0.0	1154.0623968495702	470.3674436402183	0.0	1189.819030578423	464.45929633021115	0.0
